#!OML:ASF H:\Martial Arts Walks\Project 1\Capture day 1\Session 1\male.ASF
:FULLY-SPECIFIED
:DEGREES
1633
root -2.76354 13.9639 25.2574 14.8562 -24.8866 -18.8477
lowerback 11.85 3.74941 8.85184
upperback -2.30149 6.66866 3.95482
thorax -8.62884 2.87172 -1.94686
lowerneck -3.15749 0.453996 -4.00419
upperneck 4.01512 0.549932 5.62863
head 1.79868 0.336393 2.52043
rclavicle -1.28216e-014 3.22031e-014
rhumerus -42.5632 19.8818 -82.5878
rradius 61.7207
rwrist 18.2535
rhand -4.72572 -40.0168
rfingers 7.12502
rthumb 21.0569 -68.8935
lclavicle -1.28216e-014 3.22031e-014
lhumerus -28.2695 4.83811 79.7971
lradius 24.2832
lwrist -18.7055
lhand -25.939 29.9674
lfingers 7.12502
lthumb 0.604643 59.9463
rfemur 7.86676 -10.2278 22.538
rtibia 36.3523
rfoot -22.605 -33.4493
rtoes -28.1134
lfemur -65.4046 21.9459 -2.75962
ltibia 74.209
lfoot -16.0477 -1.06594
ltoes -3.80263
1634
root -2.76648 14.0048 25.2461 14.9622 -24.7706 -18.5223
lowerback 11.5779 3.81468 8.63001
upperback -2.40696 6.6935 3.86501
thorax -8.59659 2.89417 -1.90797
lowerneck -3.2849 0.392812 -3.95339
upperneck 4.02784 0.470746 5.58542
head 1.82964 0.298596 2.49638
rclavicle 3.93097e-014 -1.19271e-014
rhumerus -42.8022 18.9541 -82.1385
rradius 60.9291
rwrist 17.0522
rhand -4.69691 -40.4245
rfingers 7.12502
rthumb 21.0846 -69.2981
lclavicle 3.93097e-014 -1.19271e-014
lhumerus -28.3368 5.477 79.7157
lradius 24.1215
lwrist -19.3799
lhand -26.0884 29.4329
lfingers 7.12502
lthumb 0.460324 59.4122
rfemur 7.70925 -9.98425 22.5917
rtibia 35.9585
rfoot -22.4072 -33.6099
rtoes -27.4655
lfemur -65.3999 21.5826 -3.10036
ltibia 73.5832
lfoot -14.997 -1.88268
ltoes -0.924651
1635
root -2.7704 14.0469 25.2402 15.1268 -24.6584 -18.2972
lowerback 11.2618 3.86776 8.48408
upperback -2.52399 6.71222 3.80684
thorax -8.54812 2.91114 -1.87196
lowerneck -3.27896 0.338245 -3.92929
upperneck 3.95235 0.399104 5.58516
head 1.8077 0.262879 2.48904
rclavicle -1.04362e-014 -1.15295e-014
rhumerus -43.0444 18.289 -81.7459
rradius 60.1023
rwrist 15.9672
rhand -4.58495 -40.6925
rfingers 7.12502
rthumb 21.1922 -69.5541
lclavicle -1.04362e-014 -1.15295e-014
lhumerus -28.4059 6.01966 79.6447
lradius 23.9832
lwrist -19.6781
lhand -25.8518 29.2769
lfingers 7.12502
lthumb 0.688853 59.2556
rfemur 7.54205 -9.93771 22.6161
rtibia 35.6172
rfoot -22.2453 -33.5835
rtoes -26.9358
lfemur -65.4715 21.2839 -3.31249
ltibia 73.018
lfoot -13.8466 -2.80676
ltoes 2.49318
1636
root -2.77365 14.0804 25.2289 15.02 -24.6589 -17.7826
lowerback 11.2241 3.90114 7.98264
upperback -2.57726 6.67779 3.68747
thorax -8.62445 2.91433 -1.72061
lowerneck -3.51688 0.307844 -3.85995
upperneck 3.98717 0.360926 5.57082
head 1.86366 0.248005 2.47365
rclavicle 5.889e-014 2.90226e-014
rhumerus -43.1241 17.7068 -81.3991
rradius 59.2287
rwrist 15.4306
rhand -4.37065 -41.0396
rfingers 7.12502
rthumb 21.398 -69.878
lclavicle 5.889e-014 2.90226e-014
lhumerus -28.4343 6.4559 79.5666
lradius 23.9932
lwrist -19.4874
lhand -25.7751 29.153
lfingers 7.12502
lthumb 0.762971 59.1314
rfemur 7.46151 -9.72715 22.357
rtibia 35.3955
rfoot -22.1943 -33.5951
rtoes -26.6042
lfemur -65.3351 20.9847 -3.76482
ltibia 72.4698
lfoot -12.6785 -3.5759
ltoes 5.439
1637
root -2.77697 14.1029 25.2261 15.1945 -24.5241 -17.6347
lowerback 10.9366 3.94413 7.91728
upperback -2.72411 6.70501 3.65791
thorax -8.61998 2.92923 -1.7025
lowerneck -3.40907 0.257143 -3.92323
upperneck 3.90081 0.293789 5.6321
head 1.82031 0.21307 2.5019
rclavicle 4.13472e-014 2.54444e-014
rhumerus -43.4119 17.1023 -81.0139
rradius 58.3511
rwrist 15.2749
rhand -4.22237 -41.1469
rfingers 7.12502
rthumb 21.5404 -69.9691
lclavicle 4.13472e-014 2.54444e-014
lhumerus -28.6676 6.72192 79.5699
lradius 24.0878
lwrist -19.2454
lhand -25.6949 28.8301
lfingers 7.12502
lthumb 0.840394 58.8081
rfemur 7.28989 -9.68535 22.3947
rtibia 35.1711
rfoot -22.0469 -33.5788
rtoes -26.6936
lfemur -65.4946 20.8049 -3.91027
ltibia 72.0764
lfoot -11.7433 -4.26618
ltoes 7.68077
